:SAMPLES-PER-SECOND 30
:FULLY-SPECIFIED
:DEGREES
337
root  9.33367 39.6377 -61.6665 -177.412 6.99461 -178.613
RightUpLeg  -8.39117 -0.43101 3.19456
RightLeg  11.2824 0.824307 -0.427446
RightFoot  -5.30048 -0.0566616 0.972404
RightToes  -5.82073e-011 -3.18055e-015 -2.98177e-016
Spine  12.2565 0.875419 -0.608731
Spine1  -2.57871 0.416938 3.21501
HEad  -16.5534 -0.0705252 6.93333
LeftShoulder1  -3.88251e-019 9.70628e-020 -3.87848e-018
LeftArm  -6.1132 37.1995 -67.5211
LeftForeArm  -17.0167 -37.4117 7.79508
LeftHand  -1.77912 -7.50134 16.6938
RightShoulder  7.00575 10.4857 32.9637
RightArm  7.42164 -40.8477 19.7295
RightForeArm  11.3238 15.3481 -5.68723
RightHand  -1.1155 3.60392 -14.2538
LeftUpLeg  -10.9951 4.16471 -3.50306
LeftLeg  16.0797 15.9872 10.2982
LeftFoot  -6.03171 0.0870433 -1.67471
LeftToes  -3.44176e-011 4.05998e-011 -5.21293e-012
338
root  9.58299 39.7821 -61.9571 -177.919 6.34698 -178.818
RightUpLeg  -5.86279 -0.160317 3.40467
RightLeg  8.35598 -0.115793 -0.0725315
RightFoot  -4.57766 -0.0392925 0.627755
RightToes  -5.82073e-011 -3.18055e-015 -2.98177e-016
Spine  10.8958 0.781125 -0.510365
Spine1  -2.25076 0.458101 2.65106
HEad  -16.1682 -0.979669 7.00178
LeftShoulder1  -3.88251e-019 9.70628e-020 -3.87848e-018
LeftArm  -6.4717 38.2354 -68.144
LeftForeArm  -17.2179 -37.5914 7.84224
LeftHand  -1.64665 -7.64063 15.313
RightShoulder  7.0939 10.4943 33.3983
RightArm  7.84733 -41.0982 18.3331
RightForeArm  13.6609 14.824 -5.20457
RightHand  -1.07853 4.14253 -13.0316
LeftUpLeg  -8.83065 1.23678 -3.19384
LeftLeg  13.9038 18.4605 9.49905
LeftFoot  -4.98837 0.120487 -1.89132
LeftToes  -3.44176e-011 4.05998e-011 -5.21293e-012
339
root  9.80475 39.8809 -62.1931 -178.28 5.73553 -178.968
RightUpLeg  -3.89911 0.190889 3.65228
RightLeg  6.00327 -0.998453 0.22061
RightFoot  -3.83084 -0.0124431 0.22039
RightToes  -5.82073e-011 -3.18055e-015 -2.98177e-016
Spine  9.55062 0.708588 -0.532089
Spine1  -1.34808 0.438823 2.39416
HEad  -17.3333 -1.18372 7.00768
LeftShoulder1  -3.88251e-019 9.70628e-020 -3.87848e-018
LeftArm  -6.77845 38.8038 -68.717
LeftForeArm  -15.4096 -36.9521 7.72917
LeftHand  -1.45745 -7.60648 13.6458
RightShoulder  7.30678 10.5605 34.3435
RightArm  9.10128 -40.6571 16.9029
RightForeArm  16.1861 15.1059 -5.37668
RightHand  -1.05493 4.48228 -12.3247
LeftUpLeg  -7.19607 -0.44125 -2.91108
LeftLeg  12.1358 19.6976 8.51817
LeftFoot  -4.24125 0.134329 -1.88468
LeftToes  -3.44176e-011 4.05998e-011 -5.21293e-012
340
root  10.0014 39.9592 -62.3937 -178.654 5.55159 -179.207
RightUpLeg  -2.39951 0.234547 3.68492
RightLeg  4.57943 -1.29206 0.583326
RightFoot  -3.31342 0.0385742 -0.402986
RightToes  -5.82073e-011 -3.18055e-015 -2.98177e-016
Spine  8.3087 0.842105 -0.901952
Spine1  -0.0977613 0.540466 2.51189
HEad  -19.6609 -0.707898 7.12299
LeftShoulder1  -3.88251e-019 9.70628e-020 -3.87848e-018
LeftArm  -6.83658 39.2731 -69.5501
LeftForeArm  -13.2165 -34.9865 7.24045
LeftHand  -1.39756 -7.5027 13.2055
RightShoulder  7.51667 10.6407 35.2311
RightArm  10.2498 -40.1074 15.9746
RightForeArm  16.7171 15.6543 -5.77371
RightHand  -1.06412 4.33247 -12.6188
LeftUpLeg  -5.58625 -0.30716 -2.63362
LeftLeg  10.3283 19.5773 7.01086
LeftFoot  -3.70748 0.115701 -1.53198
LeftToes  -3.44176e-011 4.05998e-011 -5.21293e-012
341
root  10.1601 40.0214 -62.5753 -179.021 5.72517 -179.45
RightUpLeg  -1.20356 0.0196797 3.52142
RightLeg  3.66825 -0.977105 1.07797
RightFoot  -3.12279 0.0777693 -0.841274
RightToes  -5.82073e-011 -3.18055e-015 -2.98177e-016
Spine  7.19672 1.10275 -1.30389
Spine1  1.06957 0.747328 2.74459
HEad  -22.1758 0.159817 7.34262
LeftShoulder1  -3.88251e-019 9.70628e-020 -3.87848e-018
LeftArm  -6.47817 40.027 -70.7768
LeftForeArm  -12.2301 -31.5781 6.34184
LeftHand  -1.45365 -7.42763 13.8002
RightShoulder  7.58416 10.6656 35.5151
RightArm  10.6026 -40.003 15.8783
RightForeArm  15.3706 15.9664 -5.99585
RightHand  -1.10528 4.03819 -13.4904
LeftUpLeg  -4.0491 -0.0536639 -2.35602
LeftLeg  8.72883 19.6511 5.52776
LeftFoot  -3.23857 0.0859029 -1.09697
LeftToes  -3.44176e-011 4.05998e-011 -5.21293e-012
342
root  10.2784 40.0616 -62.7323 -179.12 5.683 -179.577
RightUpLeg  -0.44076 -0.0802596 3.44566
RightLeg  2.89419 -0.815714 1.44095
RightFoot  -3.03871 0.0824365 -0.889142
RightToes  -5.82073e-011 -3.18055e-015 -2.98177e-016
Spine  6.07587 1.17786 -1.55587
Spine1  1.84825 0.747423 3.087
HEad  -23.865 1.09788 7.50571
LeftShoulder1  -3.88251e-019 9.70628e-020 -3.87848e-018
LeftArm  -7.90418 41.0764 -72.0383
LeftForeArm  -10.2613 -27.0347 4.17125
LeftHand  -1.43405 -7.28865 13.7712
RightShoulder  7.50768 10.635 35.1979
RightArm  10.2414 -40.3985 16.4814
RightForeArm  13.7987 16.0668 -6.11466
RightHand  -1.11912 3.90829 -13.8403
LeftUpLeg  -3.17191 -0.624665 -2.30363
LeftLeg  7.66331 20.2556 4.92126
LeftFoot  -2.77666 0.0823608 -0.993369
LeftToes  -3.44176e-011 4.05998e-011 -5.21293e-012
343
root  10.366 40.082 -62.8518 -178.9 5.20523 -179.626
RightUpLeg  -0.203266 0.0577766 3.5612
RightLeg  2.39273 -1.30553 1.4769
RightFoot  -2.9544 0.0816166 -0.880733
RightToes  -5.82073e-011 -3.18055e-015 -2.98177e-016
Spine  5.06032 0.965976 -1.8254
Spine1  2.11645 0.415914 3.6468
HEad  -24.3639 1.76553 7.5057
LeftShoulder1  -3.88251e-019 9.70628e-020 -3.87848e-018
LeftArm  -16.2184 42.1415 -72.6552
LeftForeArm  -1.35442 -21.4683 -0.665097
LeftHand  -1.1693 -6.62768 11.8847
RightShoulder  7.43641 10.6115 34.8902
RightArm  9.88863 -40.7551 17.1479
RightForeArm  13.1957 16.2059 -6.33182
RightHand  -1.06519 3.87339 -13.2305
LeftUpLeg  -3.04174 -1.65224 -2.50423
LeftLeg  7.06132 20.8358 5.13266
LeftFoot  -2.36188 0.110288 -1.24011
LeftToes  -3.44176e-011 4.05998e-011 -5.21293e-012
344
root  10.4261 40.0942 -62.9371 -178.691 4.73872 -179.677
RightUpLeg  -0.110535 0.209984 3.67931
RightLeg  2.12656 -1.92364 1.41551
RightFoot  -2.91611 0.0982531 -1.05138
RightToes  -5.82073e-011 -3.18055e-015 -2.98177e-016
Spine  4.52315 0.711315 -2.15361
Spine1  1.95539 0.0365615 4.24765
HEad  -24.1382 2.0382 7.38535
LeftShoulder1  -3.88251e-019 9.70628e-020 -3.87848e-018
LeftArm  -23.9814 43.0757 -72.96
LeftForeArm  5.47954 -14.5149 -3.53714
LeftHand  -0.72209 -5.00704 8.5779
RightShoulder  7.47109 10.6246 35.0362
RightArm  10.0803 -40.6109 17.3623
RightForeArm  13.3982 16.4543 -6.58795
RightHand  -1.02103 4.00544 -12.5214
LeftUpLeg  -2.9936 -2.46604 -2.72434
LeftLeg  6.55549 21.1958 5.35844
LeftFoot  -2.04468 0.138053 -1.48921
LeftToes  -3.44176e-011 4.05998e-011 -5.21293e-012
345
root  10.4549 40.1101 -63.0016 -178.736 4.70258 -179.717
RightUpLeg  0.255719 0.236728 3.6766
RightLeg  1.71843 -2.00056 1.54259
RightFoot  -2.84976 0.117011 -1.24381
RightToes  -5.82073e-011 -3.18055e-015 -2.98177e-016
Spine  4.4542 0.668176 -2.36153
Spine1  1.70177 -0.102245 4.70766
HEad  -23.6987 2.05427 6.94439
LeftShoulder1  -3.88251e-019 9.70628e-020 -3.87848e-018
LeftArm  -26.3908 44.0635 -73.478
LeftForeArm  4.91667 -7.85624 -3.70145
LeftHand  -0.343323 -2.66748 5.40595
RightShoulder  7.52568 10.6339 35.2911
RightArm  10.5861 -40.1667 17.3504
RightForeArm  13.548 16.7261 -6.78594
RightHand  -1.07859 4.45141 -12.6324
LeftUpLeg  -2.56783 -2.66014 -2.78614
LeftLeg  5.96055 21.3702 5.13758
LeftFoot  -1.84065 0.140358 -1.49366
LeftToes  -3.44176e-011 4.05998e-011 -5.21293e-012
346
root  10.4548 40.1294 -63.0491 -178.86 4.98282 -179.704
RightUpLeg  0.708566 0.254081 3.64934
RightLeg  1.16824 -1.68649 1.74883
RightFoot  -2.6638 0.123674 -1.31218
RightToes  -5.82073e-011 -3.18055e-015 -2.98177e-016
Spine  4.39192 0.810397 -2.3655
Spine1  1.64869 -0.0449748 5.10275
HEad  -23.0421 1.96706 5.90446
LeftShoulder1  -3.88251e-019 9.70628e-020 -3.87848e-018
LeftArm  -29.0896 45.6175 -74.0418
LeftForeArm  3.56884 -2.73008 -3.42096
LeftHand  -0.162369 -0.408998 3.61344
RightShoulder  7.47975 10.6048 35.1234
RightArm  10.879 -39.8999 17.6279
RightForeArm  13.2174 16.9926 -7.01089
RightHand  -1.18504 4.91653 -13.2622
LeftUpLeg  -2.03225 -2.41121 -2.67877
LeftLeg  5.39955 21.4268 4.60948
LeftFoot  -1.7321 0.123121 -1.29959
LeftToes  -3.44176e-011 4.05998e-011 -5.21293e-012
347
root  10.4348 40.1445 -63.0735 -178.8 5.24283 -179.676
RightUpLeg  0.808128 0.355941 3.672
RightLeg  0.850652 -1.50829 1.78684
RightFoot  -2.45749 0.123979 -1.31531
RightToes  -5.82073e-011 -3.18055e-015 -2.98177e-016
Spine  4.16701 0.864484 -2.12886
Spine1  1.74225 -0.0110816 5.16546
HEad  -22.1781 1.9441 4.94598
LeftShoulder1  -3.88251e-019 9.70628e-020 -3.87848e-018
LeftArm  -31.2733 48.0357 -74.3069
LeftForeArm  2.1048 -0.309 -2.77384
LeftHand  -0.110061 1.1297 3.24621
RightShoulder  7.43058 10.5828 34.9235
RightArm  11.0952 -39.754 18.1516
RightForeArm  12.4955 17.3483 -7.36345
RightHand  -1.20943 4.93839 -13.5013
LeftUpLeg  -1.81412 -2.13097 -2.5478
LeftLeg  5.01171 21.439 4.10582
LeftFoot  -1.68512 0.103326 -1.08449
LeftToes  -3.44176e-011 4.05998e-011 -5.21293e-012
348
root  10.3991 40.1502 -63.0763 -178.601 5.31828 -179.686
RightUpLeg  0.576468 0.453857 3.67022
RightLeg  0.847199 -1.57315 1.68689
RightFoot  -2.37858 0.121057 -1.28532
RightToes  -5.82073e-011 -3.18055e-015 -2.98177e-016
Spine  4.14095 0.796858 -1.88846
Spine1  1.47757 -0.0541423 5.06651
HEad  -20.9983 2.01398 4.26678
LeftShoulder1  -3.88251e-019 9.70628e-020 -3.87848e-018
LeftArm  -32.1591 51.3886 -74.0818
LeftForeArm  1.10407 -0.60268 -2.31486
LeftHand  -0.107952 1.79255 3.73343
RightShoulder  7.45065 10.5903 35.0084
RightArm  11.8961 -39.6441 18.3078
RightForeArm  11.3988 17.877 -7.84939
RightHand  -1.13594 4.5312 -13.194
LeftUpLeg  -1.92607 -2.08298 -2.56191
LeftLeg  4.84145 21.4986 3.88875
LeftFoot  -1.67732 0.0923797 -0.967221
LeftToes  -3.44176e-011 4.05998e-011 -5.21293e-012
